<?xml version="1.0" encoding="utf-8"?>
<svg version="1.1" xmlns:xlink="http://www.w3.org/1999/xlink" width="30px" height="30px" xmlns="http://www.w3.org/2000/svg">
  <defs>
    <mask fill="white" id="clip13">
      <path d="M 0 10  C 0 4.40000000000001  4.40000000000009 0  10 0  C 13.8653173696894 0  17.1589251079342 2.0962686486308  18.8285188486188 5.23650157977701  C 19.5778061074552 6.64579744355055  20 8.26531736968946  20 10  C 20 15.6  15.5999999999999 20  10 20  C 6.31069373138371 20  3.14221580754975 18.0902960691305  1.40956397958416 15.1858859584769  C 0.512222651615275 13.6816903759631  0 11.9106937313836  0 10  Z " fill-rule="evenodd" />
    </mask>
    <filter x="1340px" y="199px" width="30px" height="30px" filterUnits="userSpaceOnUse" id="filter14">
      <feOffset dx="1" dy="1" in="SourceAlpha" result="shadowOffsetInner" />
      <feGaussianBlur stdDeviation="2.5" in="shadowOffsetInner" result="shadowGaussian" />
      <feComposite in2="shadowGaussian" operator="atop" in="SourceAlpha" result="shadowComposite" />
      <feColorMatrix type="matrix" values="0 0 0 0 0  0 0 0 0 0  0 0 0 0 0  0 0 0 0.698039215686274 0  " in="shadowComposite" />
    </filter>
    <g id="widget15">
      <path d="M 0 10  C 0 4.40000000000001  4.40000000000009 0  10 0  C 13.8653173696894 0  17.1589251079342 2.0962686486308  18.8285188486188 5.23650157977701  C 19.5778061074552 6.64579744355055  20 8.26531736968946  20 10  C 20 15.6  15.5999999999999 20  10 20  C 6.31069373138371 20  3.14221580754975 18.0902960691305  1.40956397958416 15.1858859584769  C 0.512222651615275 13.6816903759631  0 11.9106937313836  0 10  Z " fill-rule="nonzero" fill="#009dd9" stroke="none" transform="matrix(1 0 0 1 1344 203 )" />
      <path d="M 0 10  C 0 4.40000000000001  4.40000000000009 0  10 0  C 13.8653173696894 0  17.1589251079342 2.0962686486308  18.8285188486188 5.23650157977701  C 19.5778061074552 6.64579744355055  20 8.26531736968946  20 10  C 20 15.6  15.5999999999999 20  10 20  C 6.31069373138371 20  3.14221580754975 18.0902960691305  1.40956397958416 15.1858859584769  C 0.512222651615275 13.6816903759631  0 11.9106937313836  0 10  Z " stroke-width="2" stroke="#ffffff" fill="none" transform="matrix(1 0 0 1 1344 203 )" mask="url(#clip13)" />
    </g>
  </defs>
  <g transform="matrix(1 0 0 1 -1340 -199 )">
    <use xlink:href="#widget15" filter="url(#filter14)" />
    <use xlink:href="#widget15" />
  </g>
</svg>