<?xml version="1.0" encoding="utf-8"?>
<svg version="1.1" xmlns:xlink="http://www.w3.org/1999/xlink" width="107px" height="26px" xmlns="http://www.w3.org/2000/svg">
  <defs>
    <mask fill="white" id="clip9">
      <path d="M 0 26  L 0 0  L 64 0  L 107 0  L 107 26  L 64 26  L 51.2000000000007 26  L 0 26  Z " fill-rule="evenodd" />
    </mask>
  </defs>
  <g transform="matrix(1 0 0 1 -588 -6045 )">
    <path d="M 0 26  L 0 0  L 64 0  L 107 0  L 107 26  L 64 26  L 51.2000000000007 26  L 0 26  Z " fill-rule="nonzero" fill="#009dd9" stroke="none" transform="matrix(1 0 0 1 588 6045 )" />
    <path d="M 0 26  L 0 0  L 64 0  L 107 0  L 107 26  L 64 26  L 51.2000000000007 26  L 0 26  Z " stroke-width="2" stroke="#f9fff8" fill="none" transform="matrix(1 0 0 1 588 6045 )" mask="url(#clip9)" />
  </g>
</svg>