<?xml version="1.0" encoding="utf-8"?>
<svg version="1.1" xmlns:xlink="http://www.w3.org/1999/xlink" width="33px" height="40px" xmlns="http://www.w3.org/2000/svg">
  <defs>
    <filter x="471px" y="770px" width="33px" height="40px" filterUnits="userSpaceOnUse" id="filter1">
      <feOffset dx="1" dy="1" in="SourceAlpha" result="shadowOffsetInner" />
      <feGaussianBlur stdDeviation="2.5" in="shadowOffsetInner" result="shadowGaussian" />
      <feComposite in2="shadowGaussian" operator="atop" in="SourceAlpha" result="shadowComposite" />
      <feColorMatrix type="matrix" values="0 0 0 0 0  0 0 0 0 0  0 0 0 0 0  0 0 0 0.698039215686274 0  " in="shadowComposite" />
    </filter>
    <g id="widget2">
      <path d="M 486.5 803.051074642438  C 482.1 795.916045933808  475.5 791.63502870863  475.5 784.5  C 475.5 780.785714285714  477.7 774.5  486.5 774.5  C 495.3 774.5  497.5 780.785714285714  497.5 784.5  C 497.5 791.63502870863  490.9 795.916045933808  486.5 803.051074642438  Z " fill-rule="nonzero" fill="#68008d" stroke="none" />
      <path d="M 486.5 804  C 481.9 796.5  475 792  475 784.5  C 475 780.6  477.3 774  486.5 774  C 495.7 774  498 780.6  498 784.5  C 498 792  491.1 796.5  486.5 804  Z M 486.5 802.102149284875  C 490.7 795.332091867616  497 791.27005741726  497 784.5  C 497 780.971428571429  494.9 775  486.5 775  C 478.1 775  476 780.971428571429  476 784.5  C 476 791.27005741726  482.3 795.332091867616  486.5 802.102149284875  Z " fill-rule="nonzero" fill="#ffffff" stroke="none" />
    </g>
  </defs>
  <g transform="matrix(1 0 0 1 -471 -770 )">
    <use xlink:href="#widget2" filter="url(#filter1)" />
    <use xlink:href="#widget2" />
  </g>
</svg>